<?xml version="1.0" encoding="utf-8"?><svg xmlns="http://www.w3.org/2000/svg" xmlns:xlink="http://www.w3.org/1999/xlink" width="1536" height="760" preserveAspectRatio="xMidYMid" viewBox="0 0 1536 760" style="z-index:1;margin-right:-2px;display:block;background-repeat-y:initial;background-repeat-x:initial;background-color:rgb(241, 242, 243);animation-play-state:paused" ><g transform="" style="animation-play-state:paused" ><linearGradient id="lg-0.6402892267735458" x1="0" x2="1" y1="0" y2="0" style="animation-play-state:paused" ><stop stop-color="#2c3e50" offset="0" style="animation-play-state:paused" ></stop>

  
<stop stop-color="#e4aa0b" offset="1" style="animation-play-state:paused" ></stop></linearGradient>
<path d="M 0 0 L 0 630.924 Q 153.6 616.995 307.2 599.148 T 614.4 584.13 T 921.6 497.093 T 1228.8 416.156 T 1536 351.704 L 1536 0 Z" fill="url(#lg-0.6402892267735458)" opacity="0.4" style="opacity:0.4;animation-play-state:paused" ></path>
<path d="M 0 0 L 0 704.727 Q 153.6 657.643 307.2 623.674 T 614.4 593.802 T 921.6 469.828 T 1228.8 410.307 T 1536 291.787 L 1536 0 Z" fill="url(#lg-0.6402892267735458)" opacity="0.4" style="opacity:0.4;animation-play-state:paused" ></path>
<path d="M 0 0 L 0 721.698 Q 153.6 680.602 307.2 648.191 T 614.4 537.215 T 921.6 442.657 T 1228.8 439.694 T 1536 267.179 L 1536 0 Z" fill="url(#lg-0.6402892267735458)" opacity="0.4" style="opacity:0.4;animation-play-state:paused" ></path>
<path d="M 0 0 L 0 740.4 Q 153.6 698.745 307.2 665.844 T 614.4 494.426 T 921.6 498.821 T 1228.8 352.115 T 1536 312.971 L 1536 0 Z" fill="url(#lg-0.6402892267735458)" opacity="0.4" style="opacity:0.4;animation-play-state:paused" ></path>
<path d="M 0 0 L 0 718.579 Q 153.6 673.688 307.2 642.347 T 614.4 593.184 T 921.6 451.92 T 1228.8 410.26 T 1536 384.766 L 1536 0 Z" fill="url(#lg-0.6402892267735458)" opacity="0.4" style="opacity:0.4;animation-play-state:paused" ></path></g></svg>